PathFileType	4	(X/Y/Z)	RBDS010\RBDS010runT45.trc
DataRate	CameraRate	NumFrames	NumMarkers	Units	OrigDataRate	OrigDataStartFrame	OrigNumFrames
150.000000	150.000000	4	32	mm	150.000000	2812	4500
Frame#	Time	L.ASIS			L.Heel.Bottom			L.Heel.Lateral			L.Heel.Top			L.Iliac.Crest			L.MT5			L.PSIS			L.Shank.Bottom.Lateral			L.Shank.Bottom.Medial			L.Shank.Top.Lateral			L.Shank.Top.Medial			L.Thigh.Bottom.Lateral			L.Thigh.Bottom.Medial			L.Thigh.Top.Lateral			L.Thigh.Top.Medial			R.ASIS			R.ASY			R.Heel.Bottom			R.Heel.Lateral			R.Heel.Top			R.Iliac.Crest			R.MT1			R.MT5			R.PSIS			R.Shank.Bottom.Lateral			R.Shank.Bottom.Medial			R.Shank.Top.Lateral			R.Shank.Top.Medial			R.Thigh.Bottom.Lateral			R.Thigh.Bottom.Medial			R.Thigh.Top.Lateral			R.Thigh.Top.Medial			
		X1	Y1	Z1	X2	Y2	Z2	X3	Y3	Z3	X4	Y4	Z4	X5	Y5	Z5	X6	Y6	Z6	X7	Y7	Z7	X8	Y8	Z8	X9	Y9	Z9	X10	Y10	Z10	X11	Y11	Z11	X12	Y12	Z12	X13	Y13	Z13	X14	Y14	Z14	X15	Y15	Z15	X16	Y16	Z16	X17	Y17	Z17	X18	Y18	Z18	X19	Y19	Z19	X20	Y20	Z20	X21	Y21	Z21	X22	Y22	Z22	X23	Y23	Z23	X24	Y24	Z24	X25	Y25	Z25	X26	Y26	Z26	X27	Y27	Z27	X28	Y28	Z28	X29	Y29	Z29	X30	Y30	Z30	X31	Y31	Z31	X32	Y32	Z32	

2813	18.74666666666667	2374.024171451082	964.494401762414	863.9250262147922	2488.173827029635	50.810544992719	972.4027182264946	2511.472108689805	55.90668031309473	921.9622479217857	2491.540016625617	99.87858339379446	957.9073571922133	2323.444437202161	1053.794385054134	836.0000240738541	2669.08227279585	57.90508074179898	882.6907762935648	2225.883851434057	1015.929390694592	951.064140377846	2511.841875412105	179.3080417497011	888.3635111175163	2483.271558502782	178.393472738082	934.5224940259127	2480.354040454446	251.4081096978185	870.4598855058973	2451.745802120905	251.2113045165211	916.8814599916278	2404.618999809263	575.3254050719841	830.0660028853079	2362.93787752595	553.4283467703356	885.6826058240257	2339.906946837419	664.1314755137549	819.2514759398895	2300.282495713551	644.0436203115862	871.4786594133667	2407.040315518293	942.3948053144669	1085.014639643634	1734.729081254221	374.9526195518824	1044.086306645971	1714.016863137971	562.3245456903934	1025.611174628334	1718.31798374072	532.8597064282939	1072.137639851208	1758.386865142517	544.6826015863627	1036.360795529068	2362.931271095405	1037.123304003706	1126.879110307191	1695.976161213807	353.8142491440233	977.2269539576678	1670.727758421456	375.5239663486177	1087.100999839782	2243.969877443792	1016.294226343236	1050.002185884717	1842.084054863701	484.5813793921496	1088.503606906913	1838.920905449802	525.7962621360857	1057.400190026895	1925.37089095072	498.5758343327521	1096.459384988956	1917.708234622751	541.4495642102187	1065.636706185547	2198.672692030197	588.8302926222732	1120.970737685949	2140.612699000471	609.5790945759193	1079.170307928002	2220.664460570678	694.840058018184	1138.054148420416	2166.331414733826	715.1631372596753	1100.413437230387	
2814	18.75333333333333	2372.646408747319	961.0853294230235	862.9524845202455	2475.028802677931	47.90735826845232	975.4427332564161	2498.326385655414	52.77851767265973	925.042425181205	2479.623601259324	96.8978434602996	961.3618743731198	2321.403726321319	1050.392829342371	836.3037991348496	2656.15275354727	52.59466999703648	885.0638219140116	2224.429407209262	1011.276891533354	952.1083088083313	2502.595567906783	174.3993726203811	891.0711394562286	2473.782026850175	174.3580742490186	937.0347337031109	2473.138060810284	247.0159733070757	872.7094435607423	2444.378128875788	247.734706291066	918.9538247898402	2403.527504872176	571.5413443281025	831.1686697648322	2361.557428248124	549.50195936751	886.4052699451057	2338.743101624616	660.2187109678279	820.1039962593311	2298.929050348422	640.066030735912	872.0655020234416	2406.790189689163	938.241487162554	1084.257003390109	1743.030715389902	384.9124009088688	1045.893660071406	1729.59920284124	573.8615999796272	1025.080704691854	1732.94759283113	544.7728764942785	1072.025294684857	1773.337532886028	554.8342790853826	1035.975939149098	2364.034375322555	1032.289192540808	1127.128403470636	1703.926492396959	365.3667866615262	979.1137707291759	1679.999090336272	389.116466818527	1089.053393130936	2243.231554618414	1011.0109450206	1051.014174396276	1854.754294215802	490.710198398369	1088.831437134376	1853.787680459722	531.7604390755416	1057.333480623825	1938.642475401147	500.4430088185365	1096.629804601502	1933.173494887498	543.3339127396151	1065.643177141874	2206.932133148497	579.9764941607878	1121.76706323084	2148.585656902961	598.90063108825	1079.39279120885	2225.715747892415	686.7198912610933	1138.485078245366	2171.017470319941	705.3677477369774	1100.464424485864	
2815	18.76	2371.107438900402	957.1993419838104	862.0109416174759	2458.038833612177	44.88722965955209	978.2048013366908	2481.421202225088	49.97231172780636	927.9542852472641	2464.015791831621	93.89608918482645	965.0176078962023	2319.336906269721	1046.396552622553	836.5367274079176	2639.611851728332	47.75143962770356	887.5129077365599	2222.713993673589	1006.299030419454	953.0390564462829	2490.775257809603	169.5347159948984	894.0122422340132	2461.526767095207	170.6756669040485	939.5719367047949	2464.185882091346	242.8020850467883	874.966091620049	2435.099390644637	244.7634837322246	920.8379482804448	2402.991291260588	567.772037447204	832.2167115018967	2360.67730632659	545.4281499202857	886.958947814202	2337.887294655569	656.1254788793995	820.8356049757634	2297.870625073054	635.7743601152338	872.4642588119206	2406.163773559161	933.7436387482161	1083.579631909209	1753.629338816632	393.5204854679318	1047.553974163973	1746.48945240316	583.8026459189797	1025.020947972595	1749.240093555449	555.0418692909334	1072.336373227035	1789.672230155158	563.5662991384587	1035.782420225143	2364.874528007812	1027.144304985356	1127.363664804562	1714.007093152745	375.6584598091578	981.0250291350998	1691.85942695323	400.9832548382082	1091.187341963112	2242.118805343344	1005.472236912599	1051.881592300508	1869.02412234475	495.6214533046491	1089.232507396633	1870.164754399624	536.5234807541128	1057.545043071038	1953.309203159426	501.2249419537328	1096.93975681821	1949.936353970939	544.1011376643945	1065.951105554779	2215.965707153536	570.785323788434	1122.658020229151	2157.173635837973	587.7520955057565	1080.028033313064	2231.307620561654	678.1735827037222	1139.09826397678	2176.058892937438	695.0253511550704	1101.008623080462	
2816	18.76666666666667	2369.400273232861	952.8608109671579	861.135627301994	2437.59141613625	41.86130914011312	980.7136272313205	2461.120829274172	47.6062339670511	930.7072586185009	2444.99445436369	90.97569525890198	968.8499293326144	2317.293027645935	1041.777730407329	836.669802343709	2619.762034424343	43.68168961700485	890.0147075043235	2220.710551953924	1001.052371081302	953.8299017739615	2476.497467237097	164.9183871616555	897.1757643628481	2446.678260304075	167.5373314871003	942.1496826669647	2453.524615267186	238.8931702374483	877.2488368606694	2423.986798657509	242.4069932104926	922.5750791841639	2402.764097002322	563.964925625617	833.1774603162812	2360.097464782584	541.2343355376504	887.399076789107	2337.159316394752	651.8520940418842	821.4172163008878	2296.949187705612	631.2269073901424	872.7006297804454	2405.144142643745	928.9880788892604	1083.025502041565	1766.408234008366	400.7290707636124	1049.027322129527	1764.460968334897	592.1167006581416	1025.46809901848	1766.977557227093	563.5936720606702	1073.090937514261	1807.1877061121	570.8358008862148	1035.807115318779	2365.195689380238	1021.763828120088	1127.61424083764	1726.07079984567	384.5656246012879	982.9465997092277	1706.115817734106	410.9450865486087	1093.469817377141	2240.578116938235	999.7353796857151	1052.56386020009	1884.741169881776	499.292312108246	1089.71792685201	1887.876475392894	540.0853958768388	1058.057728210467	1969.238129425919	500.9714147562891	1097.414043109117	1967.849125299522	543.824220433002	1066.569011425331	2225.832911126604	561.4447006537782	1123.636701231944	2166.457202311227	576.2937346994042	1081.067326300464	2237.483653110367	669.3652980841047	1139.88543961294	2181.507979645467	684.2661510206977	1102.041820002845	
